<svg id="Layer_1" data-name="Layer 1" xmlns="http://www.w3.org/2000/svg" viewBox="0 0 880.68 127.36"><defs><style>.cls-1{fill:#00737e;}.cls-2{fill:#12b0ac;}.cls-3{fill:#c73f27;}.cls-4{fill:#df6f26;}.cls-5{fill:#e8a82d;}.cls-6{fill:#e0d5b3;}.cls-7{fill:#372133;}</style></defs><circle class="cls-1" cx="59.74" cy="63.68" r="59.74"/><circle class="cls-2" cx="59.74" cy="63.68" r="53.07" transform="translate(-18.71 25.34) rotate(-20.78)"/><circle class="cls-3" cx="59.74" cy="63.68" r="47.39"/><circle class="cls-4" cx="59.74" cy="63.68" r="40.66" transform="translate(-13.07 111.86) rotate(-80.33)"/><circle class="cls-5" cx="59.74" cy="63.68" r="33.69"/><circle class="cls-6" cx="59.74" cy="63.68" r="26.04"/><path class="cls-6" d="M74.35,54.67H59.74V3.94a58.79,58.79,0,0,1,7.16.43,60.59,60.59,0,0,1,7.45,1.37Z"/><path class="cls-7" d="M74.35,63.68h-7.3q0-29.66,0-59.29c1,.12,2,.26,3,.45,1.51.26,2.93.57,4.25.9Z"/><circle class="cls-7" cx="59.74" cy="63.68" r="14.64"/><path class="cls-7" d="M213.17,97.09,196.83,73.67a26.35,26.35,0,0,1-3.08.12H175.7v23.3H160.85v-80h32.9c21,0,34,10.74,34,28.44,0,12.11-6.17,21-17,25.25l18.39,26.27Zm-20.11-67.4H175.7V61.56h17.36c13,0,19.77-5.94,19.77-16S206.09,29.69,193.06,29.69Z"/><path class="cls-7" d="M300.09,71.16H252.23c1.71,8.91,9.14,14.62,19.76,14.62,6.85,0,12.22-2.17,16.56-6.62L296.21,88c-5.49,6.51-14,9.94-24.56,9.94-20.45,0-33.7-13.14-33.7-31.3s13.37-31.18,31.53-31.18c17.82,0,30.84,12.45,30.84,31.52C300.32,68.08,300.21,69.79,300.09,71.16Zm-48-9.48h34.61c-1.15-8.8-7.89-14.85-17.25-14.85S253.49,52.77,252.12,61.68Z"/><path class="cls-7" d="M350.69,93.78c-3.43,2.74-8.57,4.11-13.71,4.11-13.36,0-21-7.08-21-20.56V48H305.91V36.55H316V22.61h14.27V36.55h16.34V48H330.24V77c0,5.93,3,9.13,8.46,9.13a12.84,12.84,0,0,0,8-2.51Z"/><path class="cls-7" d="M397.75,35.41V49a18,18,0,0,0-3.31-.34c-10.85,0-17.71,6.39-17.71,18.84V97.09H362.45v-61h13.6V45C380.16,38.6,387.58,35.41,397.75,35.41Z"/><path class="cls-7" d="M404.26,66.59c0-18.28,13.71-31.18,32.44-31.18,19,0,32.55,12.9,32.55,31.18s-13.59,31.3-32.55,31.3C418,97.89,404.26,84.87,404.26,66.59Zm50.6,0c0-11.65-7.77-19.08-18.16-19.08s-18.05,7.43-18.05,19.08,7.77,19.08,18.05,19.08S454.86,78.24,454.86,66.59Z"/><path class="cls-7" d="M543.5,36.09V87.84c0,22.16-11.54,32.21-32.9,32.21-11.42,0-22.73-3-29.7-8.68l6.4-10.74c5.37,4.45,14.05,7.31,22.5,7.31,13.48,0,19.42-6.17,19.42-18.5v-3.2c-5,5.48-12.22,8.11-20.45,8.11-17.47,0-30.84-11.88-30.84-29.59s13.37-29.35,30.84-29.35c8.57,0,16.11,2.74,21.14,8.79V36.09Zm-14,28.67c0-10.28-7.77-17.25-18.51-17.25s-18.62,7-18.62,17.25,7.77,17.48,18.62,17.48S529.45,75.16,529.45,64.76Z"/><path class="cls-7" d="M597.52,35.41V49a17.87,17.87,0,0,0-3.31-.34c-10.85,0-17.7,6.39-17.7,18.84V97.09H562.23v-61h13.59V45C579.93,38.6,587.36,35.41,597.52,35.41Z"/><path class="cls-7" d="M604,66.59c0-18.28,13.71-31.18,32.44-31.18,19,0,32.56,12.9,32.56,31.18s-13.6,31.3-32.56,31.3C617.74,97.89,604,84.87,604,66.59Zm50.61,0c0-11.65-7.77-19.08-18.17-19.08s-18,7.43-18,19.08,7.76,19.08,18,19.08S654.64,78.24,654.64,66.59Z"/><path class="cls-7" d="M677.71,66.59c0-18.28,13.7-31.18,32.44-31.18,19,0,32.55,12.9,32.55,31.18s-13.59,31.3-32.55,31.3C691.41,97.89,677.71,84.87,677.71,66.59Zm50.6,0c0-11.65-7.77-19.08-18.16-19.08s-18,7.43-18,19.08,7.77,19.08,18,19.08S728.31,78.24,728.31,66.59Z"/><path class="cls-7" d="M811.8,36.09l-26.15,61H770.91l-26.16-61H759.6l19,45.24L798.1,36.09Z"/><path class="cls-7" d="M876.11,71.16H828.25C830,80.07,837.39,85.78,848,85.78c6.85,0,12.22-2.17,16.56-6.62L872.23,88c-5.49,6.51-14.05,9.94-24.56,9.94-20.45,0-33.7-13.14-33.7-31.3s13.36-31.18,31.53-31.18c17.82,0,30.84,12.45,30.84,31.52C876.34,68.08,876.22,69.79,876.11,71.16Zm-48-9.48h34.62c-1.15-8.8-7.89-14.85-17.25-14.85S829.51,52.77,828.13,61.68Z"/></svg>